# xmcd CD database file
#
# Track frame offsets:
#	150
#	13055
#	27195
#	41872
#	53295
#	64812
#	73640
#	91500
#	107527
#	118300
#	135425
#	146000
#	155892
#	167457
#	180995
#	192442
#	204082
#	214660
#	237247
#	257170
#
# Disc length: 3630 seconds
#
# Revision: 1
# Processed by: cddbd v1.5PL3 Copyright (c) Steve Scherf et al.
# Submitted via: CDex 1.40Release
#
DISCID=100e2c14
DTITLE=Various Artist - Moradia do som Bossa brasileira
DYEAR=1998
DGENRE=Jazz
TTITLE0=CLAREANA - JOYCE 
TTITLE1=ESTAMOS AI - LENY ANDRADE 
TTITLE2=SAMBA DE GAGO - JOYCE
TTITLE3=SO DANCO SAMBA - LISA ONO
TTITLE4=CONVERSA DE BOTEQUIM - DORIS MONTEIRO
TTITLE5=CANCAO DA TRISTEZA - LUCIO ALVES
TTITLE6=PASSA POR MIM - MARCOS VALLE
TTITLE7=SE TODOS FOSSEM IGUAIS A VOCE - SYLVIA TELLES
TTITLE8=LAMENTO NO MORRO - DORIS MONTEIRO
TTITLE9=FEMININA - JOYCE
TTITLE10=ESTRADA DO SOL - LUCIO ALVES
TTITLE11=BATUCADA SURGIU - MARCOS VALLE
TTITLE12=A RA - JOAO DONATO
TTITLE13=REZA - WANDA DE SAH with THE SERGIO MENDES TRIO
TTITLE14=REGRA TRES - DORIS MONTEIRO
TTITLE15=DINDI - SYLVIA TELLES
TTITLE16=LUAS DE SUBURBIO - LEILA PINHEIRO
TTITLE17=AQUARELA DO BRASIL - ELIANE ELIAS
TTITLE18=PLAPITE INFELIZ - LISA ONO
TTITLE19=DORME PROFUNDO - MARCOS VALLE
EXTD=YEAR: 1998 ID3G: 8
EXTT0=
EXTT1=
EXTT2=
EXTT3=
EXTT4=
EXTT5=
EXTT6=
EXTT7=
EXTT8=
EXTT9=
EXTT10=
EXTT11=
EXTT12=
EXTT13=
EXTT14=
EXTT15=
EXTT16=
EXTT17=
EXTT18=
EXTT19=
PLAYORDER=
